<svg xmlns="http://www.w3.org/2000/svg" viewBox="0 0 461 413.74"><defs><style>.cls-1{fill:#1c1c1c;}.cls-1,.cls-2,.cls-3,.cls-4,.cls-5,.cls-6{stroke:#fff;stroke-miterlimit:10;}.cls-2{fill:#e1e1ea;}.cls-3{fill:none;}.cls-4{fill:#1a1a1a;}.cls-5{fill:#202020;}.cls-6{fill:#333;}</style></defs><title>facexwx</title><g id="Layer_2" data-name="Layer 2"><g id="Layer_1-2" data-name="Layer 1"><path class="cls-1" d="M455.11,413.24c-.45-3-1.91-5.64-3.07-8.38a15.93,15.93,0,0,1-.79-11.71,31.11,31.11,0,0,0,1.56-8.8c.13-3.39,1.81-6.09,3.92-8.63,4.31-5.2,3.72-7.91-1.46-12.15-7.74-6.35-16.91-9.18-26.34-11.48-4.7-1.15-7.88-4-10.33-8-1.88-3-3.83-5.95-5.58-9-3.38-5.91-8.82-7.94-15.2-8.32-.78-.05-1.57-.09-2.36-.09a13.51,13.51,0,0,1-11.17-5.33,207.9,207.9,0,0,0-23.87-23.79,45.38,45.38,0,0,1-7.86,10.11c-3,2.89-6.39,5.08-11.14,5.46,1.07-1.25,2.2-1.06,3.13-1.35,4.42-1.38,7.63-4.43,10.38-7.88a59.42,59.42,0,0,0,10.86-20.21c.92,0,.65.54.5,1-.62,4-3,7.2-4.82,10.67-.64,1.25-.49,1.75.62,2.69a200.52,200.52,0,0,1,23.68,23.67,10.23,10.23,0,0,0,7.92,4A47.46,47.46,0,0,1,404,327a14.5,14.5,0,0,1,8.36,5.75,90.7,90.7,0,0,1,6.1,9.54c2.62,4.74,6.19,8.21,11.76,9.32,2.84.57,5.59,1.6,8.4,2.32,7.28,1.84,13.33,5.91,19,10.53,3.42,2.77,3.87,6.92.94,10.21a19.73,19.73,0,0,0-5.29,13,19.46,19.46,0,0,1-1.14,5.52,15.27,15.27,0,0,0,.72,11.48,46,46,0,0,1,3.21,8.59Z"/><path class="cls-2" d="M78.69,240.26c-8.6.23-17.06-1.32-25.58-2.06-3-.27-5-2.63-7.27-4.19-4.35-3-8.81-5.81-10.38-11.42-.8-2.84-.88-5.35,1-7.81a33.75,33.75,0,0,1,3.45-4.18,13.32,13.32,0,0,0,3.93-7.09c.33-1.6.1-2.62-1.37-3.55-3.16-2-3.26-2.91-1.31-6.11,1.07-1.74,2.55-3.2,3.41-5.09.61-1.34.43-2.15-1.1-2.67-1.87-.64-2.48-2.25-1.15-3.8,4.13-4.8,3.34-10.21,1.71-15.43-.8-2.58-2.34-5.38-5.67-6a4.73,4.73,0,0,1-.89-.32c-5.47-2.22-6.76-6.93-3-11.71,2.9-3.74,6.58-6.77,9.83-10.19,4.86-5.11,10.19-9.79,14.21-15.69,3.45-5.07,7.15-9.91,9.45-15.71a30.33,30.33,0,0,0,2.35-8.32,36.66,36.66,0,0,1,2.39-10.56C75.8,80.51,78,72.23,83,65.18a6.16,6.16,0,0,0,.6-1.77c.39-.34,1-.18,1.34-.56,2.87-6.5,7.61-11.68,12.11-17,1.52-1.8,3-3.68,4.48-5.48,2-2.4,4.5-3.86,7.82-3.39,2.73.38,5.47.68,8.2,1A4.27,4.27,0,0,1,121,40.42a26.11,26.11,0,0,1,2.33,6.88c1.94,10.35,1.54,20.64-.09,31-1.52,9.65-.89,19.3.62,28.92,1.06,6.68.83,13.56,2.63,20.11,3.17,11.59,1.47,23.13-.1,34.65-.63,4.67-3.27,8.63-5.93,12.46-3.62,5.21-8.32,9.44-12.62,14a13.32,13.32,0,0,0-2.92,5.25c-2.21,6.86-3.17,13.91-4,21-.89,7.79-5.22,13.86-10.71,18.88-3.09,2.83-7.79,3.15-11.89,4.21-2.27.58-4.62.85-7,1.64l8.34.34C79.72,240.69,79.17,240.41,78.69,240.26Z"/><path class="cls-3" d="M300.46,83.74c-2.17-10.65-6.25-20.71-9.38-31.06-1.43-4.7-3.34-8.83-7-12.26s-6.15-7.76-8.81-11.94a23,23,0,0,0-9.23-8.2c-5.32-2.7-10.59-5.27-16.67-6.24-4.91-.79-9.6-2.9-14.42-4.34-6.21-1.85-12.71-2.12-19.06-3.22s-12.27-3.43-18.61-4.23c-1.79-.22-3.59-.58-5.39-.62-14.88-.32-29.78-.76-44.6.93a77.61,77.61,0,0,0-17.35,4.32,29.64,29.64,0,0,1-7.52,1.89c-5.27.46-9.73,3-14.18,5.48-4.11,2.3-8.37,4.41-11.71,7.86a2.81,2.81,0,0,0-1.13,2.2c.36,6.88-2.07,13.13-4.55,19.35-2.28,5.69-4,11.57-6,17.37-.2.58-.79,1.25.06,1.82-.14.91-.68.89-1.34.56a157.66,157.66,0,0,1,6.73-20.55c1.9-5,3.87-10,4.22-15.4.06-.85,0-1.72,0-3.13-3.47,4-5.45,8.5-8.08,12.81-.58-1.22.23-1.9.57-2.65C91.9,23.65,100.44,16.71,111,11.81c3.87-1.8,7.66-3.64,12-3.91a13.55,13.55,0,0,0,3.9-.89A103.85,103.85,0,0,1,161.53.73c12-.24,23.94-.6,35.87.73,6.82.76,13.21,3.68,20,4.39,10.62,1.12,20.75,4.12,31,7,5.85,1.66,11.56,3.33,17,6.11a26.88,26.88,0,0,1,11.12,9.88A68.78,68.78,0,0,0,287.2,42.6a14,14,0,0,1,3.54,6.29c1.65,5.57,3.32,11.14,5.45,16.56,3.09,7.85,4.11,16.3,6.79,24.25,3,9,4.71,18.65,10.64,26.55a7.78,7.78,0,0,1,1.29,3c1.74,8.47,5.29,16.49,6.23,25.15a14,14,0,0,0,4.48,8.87,15.43,15.43,0,0,1,4.64,9A60.42,60.42,0,0,0,336.33,180c3.11,5.91,5.54,12.15,8.19,18.27a48.56,48.56,0,0,0,4.63,8.46,70.71,70.71,0,0,1,9.81,20c2.29,7.58,6.23,14.41,9.49,21.55a59.69,59.69,0,0,1,4.21,11.73,13.82,13.82,0,0,1,.06,6.55c-.89-.06-.44-.66-.43-1.08.33-5.21-1.45-10-3.58-14.51-4.66-10-9.42-19.87-12.91-30.33A43.6,43.6,0,0,0,350,209.67a78.76,78.76,0,0,1-8.84-17.13c-2.88-7.57-7.46-14.38-9.72-22.22a58.73,58.73,0,0,1-2.28-9.14,9.77,9.77,0,0,0-3.1-6.18c-1.25-1.18-2.3-2.57-3.83-4.31a35.24,35.24,0,0,1,.85,12.39c-.19,2.64,1.14,5.2,2.24,7.63,1.69,3.72,3.51,7.38,5.32,11a16.9,16.9,0,0,1,1.9,5.31,15.22,15.22,0,0,0,3.69,7.71c4.79,6,8.93,12.35,11,19.88a45.42,45.42,0,0,0,11,19.54,24.16,24.16,0,0,1,6.65,17.16,18.15,18.15,0,0,1-2.14,8.15,5.52,5.52,0,0,1-3.52,3.14,13.87,13.87,0,0,0,4.57-8.95A22.11,22.11,0,0,0,360.17,238a8.58,8.58,0,0,0-1-1.32c-7.33-7.44-11.41-16.6-14.42-26.42-2-6.43-6.5-11.38-10.71-17.11,1.18,9.27,5.55,16.57,10.3,23.79-1,.24-1.11-.31-1.35-.66-4.77-6.94-8.51-14.34-9.86-22.75a7.73,7.73,0,0,0-1.6-3.6c-3.66-4.68-7.28-9.39-11.06-14,1.88,5.94,2.19,12.07,2.63,18.18a18.73,18.73,0,0,0,3.65,9.82,19.88,19.88,0,0,1,3.76,9.79,5.64,5.64,0,0,1,0,1.16c0,.09-.21.17-.62.46-.1-5.32-2.74-9.43-5.38-13.59a17.53,17.53,0,0,1-2.29-8.34c-.16-2.43-.3-4.87-.53-7.3a7.65,7.65,0,0,0-1.63-4.48A11,11,0,0,1,317.4,173a18.84,18.84,0,0,0-3.61-13.78c-2.44-3.36-3.37-7.39-3.91-11.49-.62-4.79.27-9.55-.25-14.55,1.28.52.83,1.34.86,1.91.24,4.79-.43,9.61.47,14.38a23.71,23.71,0,0,0,2.82,8.2c2.36,3.81,4.9,7.52,5,12.35a15,15,0,0,0,3.53-8.71A21.1,21.1,0,0,0,318.17,146c-3.28-4.29-5.1-9.24-6.65-14.45-2.16-7.29-5.3-14.28-7.92-21.43-3-8.26-5.12-16.69-4.58-25.6a27.11,27.11,0,0,1,1-3.79"/><path class="cls-1" d="M1.41,409.3a14.3,14.3,0,0,1-.36-8.95,21,21,0,0,1,1.36-4,79,79,0,0,0,7.82-26.06c.53-4.12,1.64-8.17,2.53-12.24,3.06-14.09,10.93-25.22,21.39-34.78a64.28,64.28,0,0,1,24-14.16c3.26-1.05,3.23-1.05,2.55-4.53-1.23-6.24-.18-12.39.8-18.53a32.14,32.14,0,0,0,.74-7.57c-1.48,2-2.08,4.12-3.19,6.38-.56-1.52.17-2.41.56-3.29,2.25-5.06,5.49-9.54,8.49-14.15,3.1-4.77,4.92-9.83,4-15.63a47,47,0,0,1-.48-8.95c0-.56-.3-1.24.8-1.93-.66,8,2.74,15.83-1.5,23.35a3.06,3.06,0,0,0-.32,1.58c.26,3.63.49,7.24-1.22,10.65a1.52,1.52,0,0,0,0,1.13c1.34,3.05.61,6-.3,9-1.66,5.51-1.13,10.56,3.3,14.78.58-1,1.15-1.95,1.68-2.91a9.06,9.06,0,0,0,.62-8.13,43.51,43.51,0,0,1-3-13.73c1.08,0,.85.71.9,1.18a41.42,41.42,0,0,0,2.81,11.9,10.21,10.21,0,0,1-1,9.87,14.07,14.07,0,0,0-2.22,7.35,5,5,0,0,0,2.59,4.93c4.23,2.28,4.12,5.28,2.91,9A64.34,64.34,0,0,1,72.59,332c-2.65,4.81-6.77,8.91-7.21,14.83-.86-3.23.63-5.82,2.18-8.32,2.74-4.41,5.6-8.75,7.67-13.52A42.42,42.42,0,0,0,77,320.33c1.32-4.32.62-5.95-2.57-7.78-2.9-1.67-3.46-4.37-2.83-7.36a5.09,5.09,0,0,0-1.16-4.87c-3.74-4.36-3.53-9.37-1.94-14.5.75-2.43,1.33-4.86.21-7.67-3.88,6.84-7.5,13.4-3.11,21.24,1.75,3.12,3.27,6.37,4.92,9.62-.39.07-.61.15-.63.11a71.89,71.89,0,0,1-6.62-13.5,12.33,12.33,0,0,1,.13-8.11,52.93,52.93,0,0,1,3.09-7.13c1-1.87,2.65-3.68.42-5.87,1.35-.35,1.11,1,1.92,1,1.47-2.68,1.12-5.6.77-8.61-2.19,3.42-5.63,6.37-6.29,10.34-.6,3.57-.82,7.3-1.34,11-.85,5.92-1.66,11.84-.15,17.82,1.07,4.25,2.78,7.92,6.38,10.69,2.91,2.24,3.14,3.95,1.66,7.22-1.73,3.78-4.59,6.86-6.48,11.23C63,333,64,332,64.65,330.9c1.47-2.51,3.27-4.81,4.53-7.45,1.09-2.31.79-4.26-1.24-5.88-2.55-2-4.76-4.32-5.82-7.55-.49-1.48-1.74-.73-2.59-.47a56.37,56.37,0,0,0-15.79,7.27c-12.86,9-23.3,20-28.4,35.19-2.73,8.13-4.17,16.62-5.45,25.1a48.08,48.08,0,0,1-3.3,11.76C3.81,395.39-.2,401.61,1.41,409.3Z"/><path class="cls-4" d="M331.76,300.5c1-3.37,2.47-6.09,5.77-7.5,2-.87,4.11-1.59,6.06-2.59,3.68-1.9,4.83-4.38,3.8-8.38-1.11-4.33-3-8.23-6.72-11a15.65,15.65,0,0,1-5.94-10.42,55.89,55.89,0,0,0-6.2-17.45c-1.83-3.47-3.6-7-5.25-10.54a4,4,0,0,0-3-2.31,113.64,113.64,0,0,0-18.42-2.69,8,8,0,0,1-6.83-4.71,43.38,43.38,0,0,1-4.38-14.11A36.75,36.75,0,0,0,278.87,186c-7.21-6.71-12.9-14.39-16.28-23.69-.27-.76-1-1.45-.3-2.72.7,1.61,1.35,3,1.89,4.35a52.6,52.6,0,0,0,13,19.18c4.48,4.22,8.58,8.77,11.18,14.48a41.5,41.5,0,0,1,3.23,11.54,47,47,0,0,0,3.78,12.59,8.1,8.1,0,0,0,7.46,5.21,88.8,88.8,0,0,1,19,2.94,165.47,165.47,0,0,1-7.36-16.56c1.12.15,1.11.88,1.33,1.39,1.27,2.88,2.41,5.81,3.79,8.63,1.74,3.54,3.2,7.11,7,9.43,3.42,2.1,5.41,5.9,7.64,9.29-3.52-3.25-5.85-7.63-10.51-10.55,1.18,2.36,2.15,4.25,3.07,6.18,3,6.37,6.87,12.4,8.17,19.49a29.47,29.47,0,0,0,2,7.5,17,17,0,0,0,4.89,6.25c4,3.21,6,7.63,6.66,12.59.45,3.13-.89,5.5-3.56,7.15a21.87,21.87,0,0,1-5.36,2.41A9.63,9.63,0,0,0,333,299.3C332.79,299.73,332.92,300.49,331.76,300.5Z"/><path class="cls-3" d="M78.69,240.26l1-.46a27.37,27.37,0,0,1,13.79,3.47,12.21,12.21,0,0,1,6.35,8.32c.36,1.68-.47,2.74-.39,4.14a10,10,0,0,1-1,5,306.06,306.06,0,0,0-13,30.56,5.8,5.8,0,0,1-1.89,3c.87-3.28,2.83-6.18,3.76-10a27,27,0,0,0-5.83,6.79c-.8,1.41-1.2,3-2.08,4.44-1,1.68-.84,3.8-.38,5.76a20.85,20.85,0,0,0,2.37,5.38c.38.69.76,1.38,1.15,2.06,3,5.2,2.73,10.32-.28,15.42-3.11,5.27-7.13,9.91-10.19,15.53-.57-1.38.24-2,.66-2.66,2.32-3.55,4.75-7,7.13-10.56a23.13,23.13,0,0,0,3.53-6.9,12.24,12.24,0,0,0-.92-9.17c-.89-1.66-1.8-3.32-2.71-5-2.14-3.9-2.56-7.88-.52-12,.18-.35.48-.75.43-1.08-.62-4.51,1.8-8.19,3.25-12.13a21.56,21.56,0,0,0,1.24-4.78c1-8.18,5.51-14.25,11.54-19.37,4-3.38,4.17-6.4.25-10s-8.56-4.82-13.58-5.34C81.16,240.64,79.88,240.82,78.69,240.26Z"/><path class="cls-3" d="M363.79,270.62l-2.05-2.34c1.38,3.61,3.54,7,3.44,11A38.91,38.91,0,0,0,357.23,264a11,11,0,0,0-2.38-2.25c-1.79-1.14-3.5-2.43-5.37-3.41-6.33-3.27-9.77-8.68-11.59-15.32-.83-3-1.58-6.09-2.33-9.14-1-4-2-7.84-4.53-11.24-2-2.7-2.83-6-3.6-9.33,1-.22.91.36,1,.77a29.23,29.23,0,0,0,9.05,15.06c7,6.53,13.73,13.43,16.38,23,1.76,6.33,4.14,12,9.17,16.44a9.39,9.39,0,0,1,1.21,1.67Z"/><path class="cls-5" d="M318.58,224.64a13.36,13.36,0,0,1-5.75-8.41c-.25-1.07-.38-2.16-.6-3.24-.81-3.94-2.11-7.69-5.74-9.92-11.14-6.84-16.09-17.65-19.23-29.65a47.2,47.2,0,0,1-1.55-8.33,2.12,2.12,0,0,1,.53-2,77.66,77.66,0,0,0,4.46,18.45c2.94,8.12,7.44,15.09,14.87,19.8a16,16,0,0,1,7.54,11.93c.56,4,1.94,7.59,5.1,10.31C318.34,223.66,318.34,223.91,318.58,224.64Z"/><path class="cls-6" d="M372.29,265.56l.43,1.08a10.15,10.15,0,0,1-4.64,5.66c-1.51.89-2,1.64-1.54,3.47a15.05,15.05,0,0,1-.25,9c-.11-.37-.07-.82-.5-1s-.78-.8-.51-1.23c1.6-2.47.72-5,.18-7.49-.3-1.38-.13-2.16,1.18-2.83A11.42,11.42,0,0,0,372.29,265.56Z"/></g></g></svg>